<mxfile host="app.diagrams.net" modified="2024-02-18T15:17:20.004Z" agent="Mozilla/5.0 (Windows NT 10.0; Win64; x64) AppleWebKit/537.36 (KHTML, like Gecko) Chrome/120.0.0.0 Safari/537.36 OPR/106.0.0.0" etag="wYFnxrDNcCC9_-2JiTdT" version="23.1.5" type="device">
  <diagram name="Page-1" id="Ob8WMxwFgEAO27Lutk-I">
    <mxGraphModel dx="3733" dy="1549" grid="1" gridSize="10" guides="1" tooltips="1" connect="0" arrows="1" fold="1" page="1" pageScale="1" pageWidth="850" pageHeight="1100" math="0" shadow="0">
      <root>
        <mxCell id="0" />
        <mxCell id="1" parent="0" />
        <mxCell id="n6tZyFYkpruv4pq4nB3Q-42" value="unicast, msg_code = 0, data = g_i" style="text;html=1;align=center;verticalAlign=middle;whiteSpace=wrap;rounded=0;" vertex="1" parent="1">
          <mxGeometry x="580" y="280" width="330" height="30" as="geometry" />
        </mxCell>
        <mxCell id="n6tZyFYkpruv4pq4nB3Q-45" value="" style="endArrow=classic;html=1;rounded=0;" edge="1" parent="1">
          <mxGeometry relative="1" as="geometry">
            <mxPoint x="1139.5" y="310.0000000000002" as="sourcePoint" />
            <mxPoint x="459.54761904761926" y="310.0000000000002" as="targetPoint" />
          </mxGeometry>
        </mxCell>
        <mxCell id="n6tZyFYkpruv4pq4nB3Q-46" value="" style="shape=message;html=1;outlineConnect=0;" vertex="1" parent="n6tZyFYkpruv4pq4nB3Q-45">
          <mxGeometry width="20" height="14" relative="1" as="geometry">
            <mxPoint x="-10" y="-7" as="offset" />
          </mxGeometry>
        </mxCell>
        <mxCell id="n6tZyFYkpruv4pq4nB3Q-49" value="" style="swimlane;startSize=0;" vertex="1" parent="1">
          <mxGeometry x="1060" width="750" height="1590" as="geometry" />
        </mxCell>
        <mxCell id="n6tZyFYkpruv4pq4nB3Q-14" value="Application" style="shape=umlLifeline;perimeter=lifelinePerimeter;whiteSpace=wrap;html=1;container=1;dropTarget=0;collapsible=0;recursiveResize=0;outlineConnect=0;portConstraint=eastwest;newEdgeStyle={&quot;curved&quot;:0,&quot;rounded&quot;:0};" vertex="1" parent="n6tZyFYkpruv4pq4nB3Q-49">
          <mxGeometry x="480" y="110" width="100" height="1480" as="geometry" />
        </mxCell>
        <mxCell id="n6tZyFYkpruv4pq4nB3Q-15" value="RFD NODE A" style="html=1;whiteSpace=wrap;" vertex="1" parent="n6tZyFYkpruv4pq4nB3Q-49">
          <mxGeometry x="25" y="30" width="110" height="50" as="geometry" />
        </mxCell>
        <mxCell id="n6tZyFYkpruv4pq4nB3Q-16" value="802.15.4 tasks" style="shape=umlLifeline;perimeter=lifelinePerimeter;whiteSpace=wrap;html=1;container=1;dropTarget=0;collapsible=0;recursiveResize=0;outlineConnect=0;portConstraint=eastwest;newEdgeStyle={&quot;curved&quot;:0,&quot;rounded&quot;:0};" vertex="1" parent="n6tZyFYkpruv4pq4nB3Q-49">
          <mxGeometry x="330" y="110" width="100" height="1480" as="geometry" />
        </mxCell>
        <mxCell id="n6tZyFYkpruv4pq4nB3Q-83" value="" style="html=1;points=[[0,0,0,0,5],[0,1,0,0,-5],[1,0,0,0,5],[1,1,0,0,-5]];perimeter=orthogonalPerimeter;outlineConnect=0;targetShapes=umlLifeline;portConstraint=eastwest;newEdgeStyle={&quot;curved&quot;:0,&quot;rounded&quot;:0};" vertex="1" parent="n6tZyFYkpruv4pq4nB3Q-16">
          <mxGeometry x="50" y="450" width="10" height="40" as="geometry" />
        </mxCell>
        <mxCell id="n6tZyFYkpruv4pq4nB3Q-117" value="" style="html=1;points=[[0,0,0,0,5],[0,1,0,0,-5],[1,0,0,0,5],[1,1,0,0,-5]];perimeter=orthogonalPerimeter;outlineConnect=0;targetShapes=umlLifeline;portConstraint=eastwest;newEdgeStyle={&quot;curved&quot;:0,&quot;rounded&quot;:0};" vertex="1" parent="n6tZyFYkpruv4pq4nB3Q-16">
          <mxGeometry x="50" y="740" width="10" height="110" as="geometry" />
        </mxCell>
        <mxCell id="n6tZyFYkpruv4pq4nB3Q-17" value="802.15.4 process" style="shape=umlLifeline;perimeter=lifelinePerimeter;whiteSpace=wrap;html=1;container=1;dropTarget=0;collapsible=0;recursiveResize=0;outlineConnect=0;portConstraint=eastwest;newEdgeStyle={&quot;curved&quot;:0,&quot;rounded&quot;:0};" vertex="1" parent="n6tZyFYkpruv4pq4nB3Q-49">
          <mxGeometry x="180" y="110" width="100" height="1480" as="geometry" />
        </mxCell>
        <mxCell id="n6tZyFYkpruv4pq4nB3Q-86" value="" style="html=1;points=[[0,0,0,0,5],[0,1,0,0,-5],[1,0,0,0,5],[1,1,0,0,-5]];perimeter=orthogonalPerimeter;outlineConnect=0;targetShapes=umlLifeline;portConstraint=eastwest;newEdgeStyle={&quot;curved&quot;:0,&quot;rounded&quot;:0};" vertex="1" parent="n6tZyFYkpruv4pq4nB3Q-17">
          <mxGeometry x="50" y="440" width="10" height="20" as="geometry" />
        </mxCell>
        <mxCell id="n6tZyFYkpruv4pq4nB3Q-116" value="" style="html=1;points=[[0,0,0,0,5],[0,1,0,0,-5],[1,0,0,0,5],[1,1,0,0,-5]];perimeter=orthogonalPerimeter;outlineConnect=0;targetShapes=umlLifeline;portConstraint=eastwest;newEdgeStyle={&quot;curved&quot;:0,&quot;rounded&quot;:0};" vertex="1" parent="n6tZyFYkpruv4pq4nB3Q-17">
          <mxGeometry x="50" y="720" width="10" height="30" as="geometry" />
        </mxCell>
        <mxCell id="n6tZyFYkpruv4pq4nB3Q-18" value="Stack CPU2" style="shape=umlLifeline;perimeter=lifelinePerimeter;whiteSpace=wrap;html=1;container=1;dropTarget=0;collapsible=0;recursiveResize=0;outlineConnect=0;portConstraint=eastwest;newEdgeStyle={&quot;curved&quot;:0,&quot;rounded&quot;:0};" vertex="1" parent="n6tZyFYkpruv4pq4nB3Q-49">
          <mxGeometry x="30" y="110" width="100" height="1470" as="geometry" />
        </mxCell>
        <mxCell id="n6tZyFYkpruv4pq4nB3Q-38" value="" style="html=1;points=[[0,0,0,0,5],[0,1,0,0,-5],[1,0,0,0,5],[1,1,0,0,-5]];perimeter=orthogonalPerimeter;outlineConnect=0;targetShapes=umlLifeline;portConstraint=eastwest;newEdgeStyle={&quot;curved&quot;:0,&quot;rounded&quot;:0};" vertex="1" parent="n6tZyFYkpruv4pq4nB3Q-49">
          <mxGeometry x="380" y="210" width="10" height="80" as="geometry" />
        </mxCell>
        <mxCell id="n6tZyFYkpruv4pq4nB3Q-32" value="" style="strokeWidth=2;html=1;shape=mxgraph.flowchart.annotation_2;align=left;labelPosition=right;pointerEvents=1;" vertex="1" parent="n6tZyFYkpruv4pq4nB3Q-49">
          <mxGeometry x="570" y="200" width="50" height="100" as="geometry" />
        </mxCell>
        <mxCell id="n6tZyFYkpruv4pq4nB3Q-35" value="" style="endArrow=none;dashed=1;html=1;rounded=0;exitX=0;exitY=0.5;exitDx=0;exitDy=0;exitPerimeter=0;" edge="1" parent="n6tZyFYkpruv4pq4nB3Q-49">
          <mxGeometry width="50" height="50" relative="1" as="geometry">
            <mxPoint x="570" y="250" as="sourcePoint" />
            <mxPoint x="390" y="250" as="targetPoint" />
          </mxGeometry>
        </mxCell>
        <mxCell id="n6tZyFYkpruv4pq4nB3Q-36" value="p_i = rand()&lt;br&gt;g_i = h1(p_i)&lt;br&gt;send(g_i)" style="rounded=0;whiteSpace=wrap;html=1;" vertex="1" parent="n6tZyFYkpruv4pq4nB3Q-49">
          <mxGeometry x="610" y="210" width="120" height="70" as="geometry" />
        </mxCell>
        <mxCell id="n6tZyFYkpruv4pq4nB3Q-39" value="dispatch" style="html=1;verticalAlign=bottom;startArrow=oval;endArrow=block;startSize=8;curved=0;rounded=0;entryX=0;entryY=0;entryDx=0;entryDy=5;" edge="1" target="n6tZyFYkpruv4pq4nB3Q-38" parent="n6tZyFYkpruv4pq4nB3Q-49">
          <mxGeometry relative="1" as="geometry">
            <mxPoint x="529.5" y="215" as="sourcePoint" />
          </mxGeometry>
        </mxCell>
        <mxCell id="n6tZyFYkpruv4pq4nB3Q-40" value="MCPS-DATA.req" style="endArrow=classic;html=1;rounded=0;" edge="1" parent="n6tZyFYkpruv4pq4nB3Q-49">
          <mxGeometry width="50" height="50" relative="1" as="geometry">
            <mxPoint x="380.21000000000004" y="290" as="sourcePoint" />
            <mxPoint x="79.78142857142848" y="290" as="targetPoint" />
          </mxGeometry>
        </mxCell>
        <mxCell id="n6tZyFYkpruv4pq4nB3Q-72" value="MCPS-DATA.ind" style="endArrow=classic;html=1;rounded=0;" edge="1" parent="n6tZyFYkpruv4pq4nB3Q-49">
          <mxGeometry width="50" height="50" relative="1" as="geometry">
            <mxPoint x="80" y="550" as="sourcePoint" />
            <mxPoint x="229.5" y="549.9999999999999" as="targetPoint" />
            <Array as="points">
              <mxPoint x="160" y="550" />
            </Array>
          </mxGeometry>
        </mxCell>
        <mxCell id="n6tZyFYkpruv4pq4nB3Q-73" value="MCPS-DATA.cnf" style="endArrow=classic;html=1;rounded=0;" edge="1" parent="n6tZyFYkpruv4pq4nB3Q-49">
          <mxGeometry width="50" height="50" relative="1" as="geometry">
            <mxPoint x="78.83333333333348" y="330" as="sourcePoint" />
            <mxPoint x="229.49999999999955" y="330" as="targetPoint" />
          </mxGeometry>
        </mxCell>
        <mxCell id="n6tZyFYkpruv4pq4nB3Q-84" value="callback" style="html=1;verticalAlign=bottom;endArrow=block;curved=0;rounded=0;entryX=1;entryY=0;entryDx=0;entryDy=5;" edge="1" target="n6tZyFYkpruv4pq4nB3Q-83" parent="n6tZyFYkpruv4pq4nB3Q-49" source="n6tZyFYkpruv4pq4nB3Q-86">
          <mxGeometry relative="1" as="geometry">
            <mxPoint x="460" y="585" as="sourcePoint" />
          </mxGeometry>
        </mxCell>
        <mxCell id="n6tZyFYkpruv4pq4nB3Q-87" value="" style="strokeWidth=2;html=1;shape=mxgraph.flowchart.annotation_2;align=left;labelPosition=right;pointerEvents=1;" vertex="1" parent="n6tZyFYkpruv4pq4nB3Q-49">
          <mxGeometry x="570" y="530" width="50" height="100" as="geometry" />
        </mxCell>
        <mxCell id="n6tZyFYkpruv4pq4nB3Q-88" value="" style="endArrow=none;dashed=1;html=1;rounded=0;exitX=0;exitY=0.5;exitDx=0;exitDy=0;exitPerimeter=0;" edge="1" parent="n6tZyFYkpruv4pq4nB3Q-49">
          <mxGeometry width="50" height="50" relative="1" as="geometry">
            <mxPoint x="570" y="580" as="sourcePoint" />
            <mxPoint x="390" y="580" as="targetPoint" />
          </mxGeometry>
        </mxCell>
        <mxCell id="n6tZyFYkpruv4pq4nB3Q-89" value="send(p_i)" style="rounded=0;whiteSpace=wrap;html=1;" vertex="1" parent="n6tZyFYkpruv4pq4nB3Q-49">
          <mxGeometry x="610" y="540" width="120" height="70" as="geometry" />
        </mxCell>
        <mxCell id="n6tZyFYkpruv4pq4nB3Q-90" value="MCPS-DATA.req" style="endArrow=classic;html=1;rounded=0;" edge="1" parent="n6tZyFYkpruv4pq4nB3Q-49">
          <mxGeometry width="50" height="50" relative="1" as="geometry">
            <mxPoint x="380.21000000000004" y="600" as="sourcePoint" />
            <mxPoint x="79.78142857142848" y="600" as="targetPoint" />
          </mxGeometry>
        </mxCell>
        <mxCell id="n6tZyFYkpruv4pq4nB3Q-91" value="MCPS-DATA.cnf" style="endArrow=classic;html=1;rounded=0;" edge="1" parent="n6tZyFYkpruv4pq4nB3Q-49">
          <mxGeometry width="50" height="50" relative="1" as="geometry">
            <mxPoint x="80.00333333333356" y="630" as="sourcePoint" />
            <mxPoint x="230.66999999999962" y="630" as="targetPoint" />
          </mxGeometry>
        </mxCell>
        <mxCell id="n6tZyFYkpruv4pq4nB3Q-115" value="MCPS-DATA.ind" style="endArrow=classic;html=1;rounded=0;" edge="1" parent="n6tZyFYkpruv4pq4nB3Q-49">
          <mxGeometry width="50" height="50" relative="1" as="geometry">
            <mxPoint x="80" y="830" as="sourcePoint" />
            <mxPoint x="229.5" y="829.9999999999999" as="targetPoint" />
            <Array as="points">
              <mxPoint x="160" y="830" />
            </Array>
          </mxGeometry>
        </mxCell>
        <mxCell id="n6tZyFYkpruv4pq4nB3Q-118" value="callback" style="html=1;verticalAlign=bottom;endArrow=block;curved=0;rounded=0;entryX=1;entryY=0;entryDx=0;entryDy=5;exitX=1;exitY=1;exitDx=0;exitDy=-5;exitPerimeter=0;" edge="1" target="n6tZyFYkpruv4pq4nB3Q-117" parent="n6tZyFYkpruv4pq4nB3Q-49" source="n6tZyFYkpruv4pq4nB3Q-116">
          <mxGeometry relative="1" as="geometry">
            <mxPoint x="460" y="865" as="sourcePoint" />
          </mxGeometry>
        </mxCell>
        <mxCell id="n6tZyFYkpruv4pq4nB3Q-120" value="" style="strokeWidth=2;html=1;shape=mxgraph.flowchart.annotation_2;align=left;labelPosition=right;pointerEvents=1;" vertex="1" parent="n6tZyFYkpruv4pq4nB3Q-49">
          <mxGeometry x="570" y="830" width="50" height="140" as="geometry" />
        </mxCell>
        <mxCell id="n6tZyFYkpruv4pq4nB3Q-121" value="" style="endArrow=none;dashed=1;html=1;rounded=0;exitX=0;exitY=0.5;exitDx=0;exitDy=0;exitPerimeter=0;" edge="1" parent="n6tZyFYkpruv4pq4nB3Q-49">
          <mxGeometry width="50" height="50" relative="1" as="geometry">
            <mxPoint x="570" y="900" as="sourcePoint" />
            <mxPoint x="390" y="900" as="targetPoint" />
          </mxGeometry>
        </mxCell>
        <mxCell id="n6tZyFYkpruv4pq4nB3Q-122" value="A = h(p)&lt;br&gt;s1,s2 = poly_eta()&lt;br&gt;t_i = A*s1+s2&lt;br&gt;t1_i, t0_i = power2r(t_i)&lt;br&gt;gt_i = h2(t1_i)&lt;br&gt;&lt;br&gt;send(gt_i)" style="rounded=0;whiteSpace=wrap;html=1;" vertex="1" parent="n6tZyFYkpruv4pq4nB3Q-49">
          <mxGeometry x="610" y="840" width="130" height="120" as="geometry" />
        </mxCell>
        <mxCell id="n6tZyFYkpruv4pq4nB3Q-124" value="MCPS-DATA.req" style="endArrow=classic;html=1;rounded=0;" edge="1" parent="n6tZyFYkpruv4pq4nB3Q-49">
          <mxGeometry width="50" height="50" relative="1" as="geometry">
            <mxPoint x="380" y="960" as="sourcePoint" />
            <mxPoint x="79.57142857142844" y="960" as="targetPoint" />
          </mxGeometry>
        </mxCell>
        <mxCell id="n6tZyFYkpruv4pq4nB3Q-125" value="MCPS-DATA.cnf" style="endArrow=classic;html=1;rounded=0;" edge="1" parent="n6tZyFYkpruv4pq4nB3Q-49">
          <mxGeometry width="50" height="50" relative="1" as="geometry">
            <mxPoint x="80.00333333333356" y="990" as="sourcePoint" />
            <mxPoint x="230.66999999999962" y="990" as="targetPoint" />
          </mxGeometry>
        </mxCell>
        <mxCell id="n6tZyFYkpruv4pq4nB3Q-151" value="" style="html=1;points=[[0,0,0,0,5],[0,1,0,0,-5],[1,0,0,0,5],[1,1,0,0,-5]];perimeter=orthogonalPerimeter;outlineConnect=0;targetShapes=umlLifeline;portConstraint=eastwest;newEdgeStyle={&quot;curved&quot;:0,&quot;rounded&quot;:0};" vertex="1" parent="n6tZyFYkpruv4pq4nB3Q-49">
          <mxGeometry x="230" y="1140" width="10" height="20" as="geometry" />
        </mxCell>
        <mxCell id="n6tZyFYkpruv4pq4nB3Q-152" value="MCPS-DATA.ind" style="endArrow=classic;html=1;rounded=0;" edge="1" parent="n6tZyFYkpruv4pq4nB3Q-49">
          <mxGeometry width="50" height="50" relative="1" as="geometry">
            <mxPoint x="80" y="1140" as="sourcePoint" />
            <mxPoint x="229.5" y="1140" as="targetPoint" />
            <Array as="points">
              <mxPoint x="160" y="1140" />
            </Array>
          </mxGeometry>
        </mxCell>
        <mxCell id="n6tZyFYkpruv4pq4nB3Q-153" value="callback" style="html=1;verticalAlign=bottom;endArrow=block;curved=0;rounded=0;entryX=1;entryY=0;entryDx=0;entryDy=5;" edge="1" parent="n6tZyFYkpruv4pq4nB3Q-49">
          <mxGeometry relative="1" as="geometry">
            <mxPoint x="230" y="1160" as="sourcePoint" />
            <mxPoint x="380" y="1160" as="targetPoint" />
          </mxGeometry>
        </mxCell>
        <mxCell id="n6tZyFYkpruv4pq4nB3Q-154" value="" style="strokeWidth=2;html=1;shape=mxgraph.flowchart.annotation_2;align=left;labelPosition=right;pointerEvents=1;" vertex="1" parent="n6tZyFYkpruv4pq4nB3Q-49">
          <mxGeometry x="570" y="1120" width="50" height="100" as="geometry" />
        </mxCell>
        <mxCell id="n6tZyFYkpruv4pq4nB3Q-155" value="" style="endArrow=none;dashed=1;html=1;rounded=0;exitX=0;exitY=0.5;exitDx=0;exitDy=0;exitPerimeter=0;" edge="1" parent="n6tZyFYkpruv4pq4nB3Q-49" source="n6tZyFYkpruv4pq4nB3Q-159">
          <mxGeometry width="50" height="50" relative="1" as="geometry">
            <mxPoint x="570" y="1170" as="sourcePoint" />
            <mxPoint x="390" y="1170" as="targetPoint" />
          </mxGeometry>
        </mxCell>
        <mxCell id="n6tZyFYkpruv4pq4nB3Q-156" value="send(t1_i)" style="rounded=0;whiteSpace=wrap;html=1;" vertex="1" parent="n6tZyFYkpruv4pq4nB3Q-49">
          <mxGeometry x="610" y="1130" width="120" height="70" as="geometry" />
        </mxCell>
        <mxCell id="n6tZyFYkpruv4pq4nB3Q-157" value="MCPS-DATA.req" style="endArrow=classic;html=1;rounded=0;" edge="1" parent="n6tZyFYkpruv4pq4nB3Q-49">
          <mxGeometry width="50" height="50" relative="1" as="geometry">
            <mxPoint x="380.21000000000004" y="1190" as="sourcePoint" />
            <mxPoint x="79.78142857142848" y="1190" as="targetPoint" />
          </mxGeometry>
        </mxCell>
        <mxCell id="n6tZyFYkpruv4pq4nB3Q-158" value="MCPS-DATA.cnf" style="endArrow=classic;html=1;rounded=0;" edge="1" parent="n6tZyFYkpruv4pq4nB3Q-49">
          <mxGeometry width="50" height="50" relative="1" as="geometry">
            <mxPoint x="80.00333333333356" y="1220" as="sourcePoint" />
            <mxPoint x="230.66999999999962" y="1220" as="targetPoint" />
          </mxGeometry>
        </mxCell>
        <mxCell id="n6tZyFYkpruv4pq4nB3Q-159" value="" style="html=1;points=[[0,0,0,0,5],[0,1,0,0,-5],[1,0,0,0,5],[1,1,0,0,-5]];perimeter=orthogonalPerimeter;outlineConnect=0;targetShapes=umlLifeline;portConstraint=eastwest;newEdgeStyle={&quot;curved&quot;:0,&quot;rounded&quot;:0};" vertex="1" parent="n6tZyFYkpruv4pq4nB3Q-49">
          <mxGeometry x="380" y="1160" width="10" height="30" as="geometry" />
        </mxCell>
        <mxCell id="n6tZyFYkpruv4pq4nB3Q-161" value="" style="endArrow=classic;html=1;rounded=0;" edge="1" parent="n6tZyFYkpruv4pq4nB3Q-49">
          <mxGeometry width="50" height="50" relative="1" as="geometry">
            <mxPoint x="380.00142857142845" y="960" as="sourcePoint" />
            <mxPoint x="530.43" y="960" as="targetPoint" />
          </mxGeometry>
        </mxCell>
        <mxCell id="n6tZyFYkpruv4pq4nB3Q-162" value="p, A, t1_i" style="text;html=1;align=center;verticalAlign=middle;whiteSpace=wrap;rounded=0;" vertex="1" parent="n6tZyFYkpruv4pq4nB3Q-49">
          <mxGeometry x="420" y="930" width="60" height="30" as="geometry" />
        </mxCell>
        <mxCell id="n6tZyFYkpruv4pq4nB3Q-164" value="" style="endArrow=none;dashed=1;html=1;rounded=0;exitX=0;exitY=0.5;exitDx=0;exitDy=0;exitPerimeter=0;" edge="1" parent="n6tZyFYkpruv4pq4nB3Q-49">
          <mxGeometry width="50" height="50" relative="1" as="geometry">
            <mxPoint x="570" y="1169.5" as="sourcePoint" />
            <mxPoint x="390" y="1169.5" as="targetPoint" />
          </mxGeometry>
        </mxCell>
        <mxCell id="n6tZyFYkpruv4pq4nB3Q-190" value="" style="html=1;points=[[0,0,0,0,5],[0,1,0,0,-5],[1,0,0,0,5],[1,1,0,0,-5]];perimeter=orthogonalPerimeter;outlineConnect=0;targetShapes=umlLifeline;portConstraint=eastwest;newEdgeStyle={&quot;curved&quot;:0,&quot;rounded&quot;:0};" vertex="1" parent="n6tZyFYkpruv4pq4nB3Q-49">
          <mxGeometry x="380" y="1440" width="10" height="60" as="geometry" />
        </mxCell>
        <mxCell id="n6tZyFYkpruv4pq4nB3Q-191" value="MCPS-DATA.ind" style="endArrow=classic;html=1;rounded=0;" edge="1" parent="n6tZyFYkpruv4pq4nB3Q-49">
          <mxGeometry width="50" height="50" relative="1" as="geometry">
            <mxPoint x="80" y="1420" as="sourcePoint" />
            <mxPoint x="229.5" y="1420" as="targetPoint" />
            <Array as="points">
              <mxPoint x="160" y="1420" />
            </Array>
          </mxGeometry>
        </mxCell>
        <mxCell id="n6tZyFYkpruv4pq4nB3Q-192" value="callback" style="html=1;verticalAlign=bottom;endArrow=block;curved=0;rounded=0;entryX=1;entryY=0;entryDx=0;entryDy=5;" edge="1" parent="n6tZyFYkpruv4pq4nB3Q-49" target="n6tZyFYkpruv4pq4nB3Q-190" source="n6tZyFYkpruv4pq4nB3Q-17">
          <mxGeometry relative="1" as="geometry">
            <mxPoint x="240" y="1445" as="sourcePoint" />
          </mxGeometry>
        </mxCell>
        <mxCell id="n6tZyFYkpruv4pq4nB3Q-193" value="" style="strokeWidth=2;html=1;shape=mxgraph.flowchart.annotation_2;align=left;labelPosition=right;pointerEvents=1;" vertex="1" parent="n6tZyFYkpruv4pq4nB3Q-49">
          <mxGeometry x="570" y="1400" width="50" height="140" as="geometry" />
        </mxCell>
        <mxCell id="n6tZyFYkpruv4pq4nB3Q-194" value="" style="endArrow=none;dashed=1;html=1;rounded=0;exitX=0;exitY=0.5;exitDx=0;exitDy=0;exitPerimeter=0;" edge="1" parent="n6tZyFYkpruv4pq4nB3Q-49">
          <mxGeometry width="50" height="50" relative="1" as="geometry">
            <mxPoint x="570" y="1469.38" as="sourcePoint" />
            <mxPoint x="390" y="1469.38" as="targetPoint" />
          </mxGeometry>
        </mxCell>
        <mxCell id="n6tZyFYkpruv4pq4nB3Q-195" value="tr = H(p, t1)" style="rounded=0;whiteSpace=wrap;html=1;" vertex="1" parent="n6tZyFYkpruv4pq4nB3Q-49">
          <mxGeometry x="610" y="1410" width="130" height="120" as="geometry" />
        </mxCell>
        <mxCell id="n6tZyFYkpruv4pq4nB3Q-196" value="" style="endArrow=classic;html=1;rounded=0;" edge="1" parent="n6tZyFYkpruv4pq4nB3Q-49">
          <mxGeometry width="50" height="50" relative="1" as="geometry">
            <mxPoint x="380.0014285714285" y="1498.75" as="sourcePoint" />
            <mxPoint x="530.4299999999998" y="1498.75" as="targetPoint" />
          </mxGeometry>
        </mxCell>
        <mxCell id="n6tZyFYkpruv4pq4nB3Q-197" value="tr, t1" style="text;html=1;align=center;verticalAlign=middle;whiteSpace=wrap;rounded=0;" vertex="1" parent="n6tZyFYkpruv4pq4nB3Q-49">
          <mxGeometry x="420" y="1468.75" width="60" height="30" as="geometry" />
        </mxCell>
        <mxCell id="n6tZyFYkpruv4pq4nB3Q-51" value="Other RFD NODESS" style="shape=umlLifeline;perimeter=lifelinePerimeter;whiteSpace=wrap;html=1;container=1;dropTarget=0;collapsible=0;recursiveResize=0;outlineConnect=0;portConstraint=eastwest;newEdgeStyle={&quot;curved&quot;:0,&quot;rounded&quot;:0};" vertex="1" parent="1">
          <mxGeometry x="900" y="30" width="100" height="1540" as="geometry" />
        </mxCell>
        <mxCell id="n6tZyFYkpruv4pq4nB3Q-52" value="" style="endArrow=none;dashed=1;html=1;dashPattern=1 3;strokeWidth=2;rounded=0;" edge="1" parent="1">
          <mxGeometry width="50" height="50" relative="1" as="geometry">
            <mxPoint x="850" y="380" as="sourcePoint" />
            <mxPoint x="850" y="350" as="targetPoint" />
          </mxGeometry>
        </mxCell>
        <mxCell id="n6tZyFYkpruv4pq4nB3Q-53" value="" style="endArrow=classic;html=1;rounded=0;" edge="1" parent="1">
          <mxGeometry relative="1" as="geometry">
            <mxPoint x="949.5" y="390" as="sourcePoint" />
            <mxPoint x="459.32352941176487" y="389.99999999999994" as="targetPoint" />
          </mxGeometry>
        </mxCell>
        <mxCell id="n6tZyFYkpruv4pq4nB3Q-54" value="" style="shape=message;html=1;outlineConnect=0;" vertex="1" parent="n6tZyFYkpruv4pq4nB3Q-53">
          <mxGeometry width="20" height="14" relative="1" as="geometry">
            <mxPoint x="-10" y="-7" as="offset" />
          </mxGeometry>
        </mxCell>
        <mxCell id="n6tZyFYkpruv4pq4nB3Q-68" value="" style="swimlane;startSize=0;" vertex="1" parent="1">
          <mxGeometry x="-220" width="770" height="1560" as="geometry" />
        </mxCell>
        <mxCell id="n6tZyFYkpruv4pq4nB3Q-3" value="Application" style="shape=umlLifeline;perimeter=lifelinePerimeter;whiteSpace=wrap;html=1;container=1;dropTarget=0;collapsible=0;recursiveResize=0;outlineConnect=0;portConstraint=eastwest;newEdgeStyle={&quot;curved&quot;:0,&quot;rounded&quot;:0};" vertex="1" parent="n6tZyFYkpruv4pq4nB3Q-68">
          <mxGeometry x="180" y="130" width="100" height="1430" as="geometry" />
        </mxCell>
        <mxCell id="n6tZyFYkpruv4pq4nB3Q-4" value="Central FFD NODE" style="html=1;whiteSpace=wrap;" vertex="1" parent="n6tZyFYkpruv4pq4nB3Q-68">
          <mxGeometry x="380" y="20" width="140" height="50" as="geometry" />
        </mxCell>
        <mxCell id="n6tZyFYkpruv4pq4nB3Q-12" value="802.15.4 process" style="shape=umlLifeline;perimeter=lifelinePerimeter;whiteSpace=wrap;html=1;container=1;dropTarget=0;collapsible=0;recursiveResize=0;outlineConnect=0;portConstraint=eastwest;newEdgeStyle={&quot;curved&quot;:0,&quot;rounded&quot;:0};" vertex="1" parent="n6tZyFYkpruv4pq4nB3Q-68">
          <mxGeometry x="480" y="130" width="100" height="1430" as="geometry" />
        </mxCell>
        <mxCell id="n6tZyFYkpruv4pq4nB3Q-100" value="" style="html=1;points=[[0,0,0,0,5],[0,1,0,0,-5],[1,0,0,0,5],[1,1,0,0,-5]];perimeter=orthogonalPerimeter;outlineConnect=0;targetShapes=umlLifeline;portConstraint=eastwest;newEdgeStyle={&quot;curved&quot;:0,&quot;rounded&quot;:0};" vertex="1" parent="n6tZyFYkpruv4pq4nB3Q-12">
          <mxGeometry x="-99.75" y="530" width="10" height="110" as="geometry" />
        </mxCell>
        <mxCell id="n6tZyFYkpruv4pq4nB3Q-101" value="MCPS-DATA.req" style="endArrow=classic;html=1;rounded=0;exitX=1;exitY=1;exitDx=0;exitDy=-5;exitPerimeter=0;" edge="1" parent="n6tZyFYkpruv4pq4nB3Q-12" source="n6tZyFYkpruv4pq4nB3Q-100">
          <mxGeometry width="50" height="50" relative="1" as="geometry">
            <mxPoint x="-29.75" y="670" as="sourcePoint" />
            <mxPoint x="199.25" y="635" as="targetPoint" />
          </mxGeometry>
        </mxCell>
        <mxCell id="n6tZyFYkpruv4pq4nB3Q-102" value="" style="html=1;points=[[0,0,0,0,5],[0,1,0,0,-5],[1,0,0,0,5],[1,1,0,0,-5]];perimeter=orthogonalPerimeter;outlineConnect=0;targetShapes=umlLifeline;portConstraint=eastwest;newEdgeStyle={&quot;curved&quot;:0,&quot;rounded&quot;:0};" vertex="1" parent="n6tZyFYkpruv4pq4nB3Q-12">
          <mxGeometry x="45.25" y="500.71000000000004" width="10" height="29.29" as="geometry" />
        </mxCell>
        <mxCell id="n6tZyFYkpruv4pq4nB3Q-103" value="MCPS-DATA.ind" style="endArrow=classic;html=1;rounded=0;" edge="1" parent="n6tZyFYkpruv4pq4nB3Q-12">
          <mxGeometry width="50" height="50" relative="1" as="geometry">
            <mxPoint x="199.75" y="500" as="sourcePoint" />
            <mxPoint x="50.25" y="500" as="targetPoint" />
          </mxGeometry>
        </mxCell>
        <mxCell id="n6tZyFYkpruv4pq4nB3Q-104" value="callback" style="html=1;verticalAlign=bottom;endArrow=block;curved=0;rounded=0;entryX=1;entryY=0;entryDx=0;entryDy=5;" edge="1" parent="n6tZyFYkpruv4pq4nB3Q-12">
          <mxGeometry relative="1" as="geometry">
            <mxPoint x="45.25" y="530" as="sourcePoint" />
            <mxPoint x="-94.25" y="530" as="targetPoint" />
          </mxGeometry>
        </mxCell>
        <mxCell id="n6tZyFYkpruv4pq4nB3Q-134" value="" style="html=1;points=[[0,0,0,0,5],[0,1,0,0,-5],[1,0,0,0,5],[1,1,0,0,-5]];perimeter=orthogonalPerimeter;outlineConnect=0;targetShapes=umlLifeline;portConstraint=eastwest;newEdgeStyle={&quot;curved&quot;:0,&quot;rounded&quot;:0};" vertex="1" parent="n6tZyFYkpruv4pq4nB3Q-12">
          <mxGeometry x="-99.5" y="880" width="10" height="60" as="geometry" />
        </mxCell>
        <mxCell id="n6tZyFYkpruv4pq4nB3Q-135" value="" style="html=1;points=[[0,0,0,0,5],[0,1,0,0,-5],[1,0,0,0,5],[1,1,0,0,-5]];perimeter=orthogonalPerimeter;outlineConnect=0;targetShapes=umlLifeline;portConstraint=eastwest;newEdgeStyle={&quot;curved&quot;:0,&quot;rounded&quot;:0};" vertex="1" parent="n6tZyFYkpruv4pq4nB3Q-12">
          <mxGeometry x="45.5" y="850.71" width="10" height="29.29" as="geometry" />
        </mxCell>
        <mxCell id="n6tZyFYkpruv4pq4nB3Q-136" value="MCPS-DATA.ind" style="endArrow=classic;html=1;rounded=0;" edge="1" parent="n6tZyFYkpruv4pq4nB3Q-12">
          <mxGeometry width="50" height="50" relative="1" as="geometry">
            <mxPoint x="200" y="850" as="sourcePoint" />
            <mxPoint x="50.5" y="850" as="targetPoint" />
          </mxGeometry>
        </mxCell>
        <mxCell id="n6tZyFYkpruv4pq4nB3Q-137" value="callback" style="html=1;verticalAlign=bottom;endArrow=block;curved=0;rounded=0;entryX=1;entryY=0;entryDx=0;entryDy=5;" edge="1" parent="n6tZyFYkpruv4pq4nB3Q-12">
          <mxGeometry relative="1" as="geometry">
            <mxPoint x="45.5" y="880" as="sourcePoint" />
            <mxPoint x="-94" y="880" as="targetPoint" />
          </mxGeometry>
        </mxCell>
        <mxCell id="n6tZyFYkpruv4pq4nB3Q-13" value="Stack CPU2" style="shape=umlLifeline;perimeter=lifelinePerimeter;whiteSpace=wrap;html=1;container=1;dropTarget=0;collapsible=0;recursiveResize=0;outlineConnect=0;portConstraint=eastwest;newEdgeStyle={&quot;curved&quot;:0,&quot;rounded&quot;:0};" vertex="1" parent="n6tZyFYkpruv4pq4nB3Q-68">
          <mxGeometry x="630" y="130" width="100" height="1430" as="geometry" />
        </mxCell>
        <mxCell id="n6tZyFYkpruv4pq4nB3Q-11" value="802.15.4 tasks" style="shape=umlLifeline;perimeter=lifelinePerimeter;whiteSpace=wrap;html=1;container=1;dropTarget=0;collapsible=0;recursiveResize=0;outlineConnect=0;portConstraint=eastwest;newEdgeStyle={&quot;curved&quot;:0,&quot;rounded&quot;:0};" vertex="1" parent="n6tZyFYkpruv4pq4nB3Q-13">
          <mxGeometry x="-300" width="100" height="1430" as="geometry" />
        </mxCell>
        <mxCell id="n6tZyFYkpruv4pq4nB3Q-62" value="" style="html=1;points=[[0,0,0,0,5],[0,1,0,0,-5],[1,0,0,0,5],[1,1,0,0,-5]];perimeter=orthogonalPerimeter;outlineConnect=0;targetShapes=umlLifeline;portConstraint=eastwest;newEdgeStyle={&quot;curved&quot;:0,&quot;rounded&quot;:0};" vertex="1" parent="n6tZyFYkpruv4pq4nB3Q-11">
          <mxGeometry x="50" y="220" width="10" height="110" as="geometry" />
        </mxCell>
        <mxCell id="n6tZyFYkpruv4pq4nB3Q-74" value="MCPS-DATA.req" style="endArrow=classic;html=1;rounded=0;exitX=1;exitY=1;exitDx=0;exitDy=-5;exitPerimeter=0;" edge="1" parent="n6tZyFYkpruv4pq4nB3Q-13" source="n6tZyFYkpruv4pq4nB3Q-62" target="n6tZyFYkpruv4pq4nB3Q-13">
          <mxGeometry width="50" height="50" relative="1" as="geometry">
            <mxPoint x="-180" y="360" as="sourcePoint" />
            <mxPoint x="-130" y="310" as="targetPoint" />
          </mxGeometry>
        </mxCell>
        <mxCell id="n6tZyFYkpruv4pq4nB3Q-61" value="" style="html=1;points=[[0,0,0,0,5],[0,1,0,0,-5],[1,0,0,0,5],[1,1,0,0,-5]];perimeter=orthogonalPerimeter;outlineConnect=0;targetShapes=umlLifeline;portConstraint=eastwest;newEdgeStyle={&quot;curved&quot;:0,&quot;rounded&quot;:0};" vertex="1" parent="n6tZyFYkpruv4pq4nB3Q-68">
          <mxGeometry x="525" y="320.71" width="10" height="29.29" as="geometry" />
        </mxCell>
        <mxCell id="n6tZyFYkpruv4pq4nB3Q-55" value="MCPS-DATA.ind" style="endArrow=classic;html=1;rounded=0;" edge="1" parent="n6tZyFYkpruv4pq4nB3Q-68">
          <mxGeometry width="50" height="50" relative="1" as="geometry">
            <mxPoint x="679.5" y="319.99999999999994" as="sourcePoint" />
            <mxPoint x="530" y="319.99999999999994" as="targetPoint" />
          </mxGeometry>
        </mxCell>
        <mxCell id="n6tZyFYkpruv4pq4nB3Q-63" value="callback" style="html=1;verticalAlign=bottom;endArrow=block;curved=0;rounded=0;entryX=1;entryY=0;entryDx=0;entryDy=5;" edge="1" parent="n6tZyFYkpruv4pq4nB3Q-68">
          <mxGeometry relative="1" as="geometry">
            <mxPoint x="525" y="350" as="sourcePoint" />
            <mxPoint x="385.5" y="350" as="targetPoint" />
          </mxGeometry>
        </mxCell>
        <mxCell id="n6tZyFYkpruv4pq4nB3Q-69" value="" style="strokeWidth=2;html=1;shape=mxgraph.flowchart.annotation_2;align=left;labelPosition=right;pointerEvents=1;rotation=-180;" vertex="1" parent="n6tZyFYkpruv4pq4nB3Q-68">
          <mxGeometry x="130" y="360" width="50" height="100" as="geometry" />
        </mxCell>
        <mxCell id="n6tZyFYkpruv4pq4nB3Q-70" value="receive all g_i" style="rounded=0;whiteSpace=wrap;html=1;" vertex="1" parent="n6tZyFYkpruv4pq4nB3Q-68">
          <mxGeometry x="20" y="380" width="120" height="60" as="geometry" />
        </mxCell>
        <mxCell id="n6tZyFYkpruv4pq4nB3Q-71" value="" style="endArrow=none;dashed=1;html=1;dashPattern=1 3;strokeWidth=2;rounded=0;exitX=0;exitY=0.5;exitDx=0;exitDy=0;exitPerimeter=0;" edge="1" parent="n6tZyFYkpruv4pq4nB3Q-68" source="n6tZyFYkpruv4pq4nB3Q-69" target="n6tZyFYkpruv4pq4nB3Q-62">
          <mxGeometry width="50" height="50" relative="1" as="geometry">
            <mxPoint x="260" y="400" as="sourcePoint" />
            <mxPoint x="310" y="350" as="targetPoint" />
          </mxGeometry>
        </mxCell>
        <mxCell id="n6tZyFYkpruv4pq4nB3Q-47" value="" style="endArrow=classic;html=1;rounded=0;" edge="1" parent="n6tZyFYkpruv4pq4nB3Q-68">
          <mxGeometry relative="1" as="geometry">
            <mxPoint x="1169.5" y="334.88" as="sourcePoint" />
            <mxPoint x="679.5476190476193" y="334.88" as="targetPoint" />
          </mxGeometry>
        </mxCell>
        <mxCell id="n6tZyFYkpruv4pq4nB3Q-48" value="" style="shape=message;html=1;outlineConnect=0;" vertex="1" parent="n6tZyFYkpruv4pq4nB3Q-47">
          <mxGeometry width="20" height="14" relative="1" as="geometry">
            <mxPoint x="-10" y="-7" as="offset" />
          </mxGeometry>
        </mxCell>
        <mxCell id="n6tZyFYkpruv4pq4nB3Q-75" value="MCPS-DATA.cnf" style="endArrow=classic;html=1;rounded=0;" edge="1" parent="n6tZyFYkpruv4pq4nB3Q-68">
          <mxGeometry width="50" height="50" relative="1" as="geometry">
            <mxPoint x="679.5" y="550" as="sourcePoint" />
            <mxPoint x="530" y="550" as="targetPoint" />
          </mxGeometry>
        </mxCell>
        <mxCell id="n6tZyFYkpruv4pq4nB3Q-81" value="" style="endArrow=classic;html=1;rounded=0;" edge="1" parent="n6tZyFYkpruv4pq4nB3Q-68">
          <mxGeometry width="50" height="50" relative="1" as="geometry">
            <mxPoint x="380" y="459.9999999999998" as="sourcePoint" />
            <mxPoint x="229.9473684210525" y="459.9999999999998" as="targetPoint" />
          </mxGeometry>
        </mxCell>
        <mxCell id="n6tZyFYkpruv4pq4nB3Q-82" value="received g_i" style="text;html=1;align=center;verticalAlign=middle;whiteSpace=wrap;rounded=0;" vertex="1" parent="n6tZyFYkpruv4pq4nB3Q-68">
          <mxGeometry x="270" y="430" width="80" height="30" as="geometry" />
        </mxCell>
        <mxCell id="n6tZyFYkpruv4pq4nB3Q-105" value="" style="endArrow=classic;html=1;rounded=0;" edge="1" parent="n6tZyFYkpruv4pq4nB3Q-68">
          <mxGeometry width="50" height="50" relative="1" as="geometry">
            <mxPoint x="380" y="769.9999999999998" as="sourcePoint" />
            <mxPoint x="229.9473684210525" y="769.9999999999998" as="targetPoint" />
          </mxGeometry>
        </mxCell>
        <mxCell id="n6tZyFYkpruv4pq4nB3Q-106" value="A, p" style="text;html=1;align=center;verticalAlign=middle;whiteSpace=wrap;rounded=0;" vertex="1" parent="n6tZyFYkpruv4pq4nB3Q-68">
          <mxGeometry x="270" y="740" width="80" height="30" as="geometry" />
        </mxCell>
        <mxCell id="n6tZyFYkpruv4pq4nB3Q-107" value="" style="strokeWidth=2;html=1;shape=mxgraph.flowchart.annotation_2;align=left;labelPosition=right;pointerEvents=1;rotation=-180;" vertex="1" parent="n6tZyFYkpruv4pq4nB3Q-68">
          <mxGeometry x="130" y="650" width="50" height="130" as="geometry" />
        </mxCell>
        <mxCell id="n6tZyFYkpruv4pq4nB3Q-108" value="receive all p_i&lt;br&gt;if g_i =/= h1(p_i) abort&lt;br&gt;p = p_0 + ... + p_n&lt;br&gt;A = h(p)" style="rounded=0;whiteSpace=wrap;html=1;" vertex="1" parent="n6tZyFYkpruv4pq4nB3Q-68">
          <mxGeometry x="10" y="660" width="130" height="110" as="geometry" />
        </mxCell>
        <mxCell id="n6tZyFYkpruv4pq4nB3Q-109" value="" style="endArrow=none;dashed=1;html=1;dashPattern=1 3;strokeWidth=2;rounded=0;exitX=0;exitY=0.5;exitDx=0;exitDy=0;exitPerimeter=0;" edge="1" parent="n6tZyFYkpruv4pq4nB3Q-68" source="n6tZyFYkpruv4pq4nB3Q-107" target="n6tZyFYkpruv4pq4nB3Q-11">
          <mxGeometry width="50" height="50" relative="1" as="geometry">
            <mxPoint x="260" y="700" as="sourcePoint" />
            <mxPoint x="380" y="710" as="targetPoint" />
          </mxGeometry>
        </mxCell>
        <mxCell id="n6tZyFYkpruv4pq4nB3Q-123" value="MCPS-DATA.cnf" style="endArrow=classic;html=1;rounded=0;" edge="1" parent="n6tZyFYkpruv4pq4nB3Q-68" source="n6tZyFYkpruv4pq4nB3Q-13">
          <mxGeometry width="50" height="50" relative="1" as="geometry">
            <mxPoint x="674.5" y="830" as="sourcePoint" />
            <mxPoint x="530" y="830" as="targetPoint" />
          </mxGeometry>
        </mxCell>
        <mxCell id="n6tZyFYkpruv4pq4nB3Q-139" value="MCPS-DATA.req" style="endArrow=classic;html=1;rounded=0;exitX=1;exitY=1;exitDx=0;exitDy=-5;exitPerimeter=0;" edge="1" parent="n6tZyFYkpruv4pq4nB3Q-68">
          <mxGeometry width="50" height="50" relative="1" as="geometry">
            <mxPoint x="390.05" y="1065" as="sourcePoint" />
            <mxPoint x="679.05" y="1065" as="targetPoint" />
          </mxGeometry>
        </mxCell>
        <mxCell id="n6tZyFYkpruv4pq4nB3Q-140" value="" style="endArrow=classic;html=1;rounded=0;" edge="1" parent="n6tZyFYkpruv4pq4nB3Q-68">
          <mxGeometry width="50" height="50" relative="1" as="geometry">
            <mxPoint x="380.05" y="1069.9999999999998" as="sourcePoint" />
            <mxPoint x="229.9973684210525" y="1069.9999999999998" as="targetPoint" />
          </mxGeometry>
        </mxCell>
        <mxCell id="n6tZyFYkpruv4pq4nB3Q-141" value="received gt_i" style="text;html=1;align=center;verticalAlign=middle;whiteSpace=wrap;rounded=0;" vertex="1" parent="n6tZyFYkpruv4pq4nB3Q-68">
          <mxGeometry x="270.05" y="1040" width="80" height="30" as="geometry" />
        </mxCell>
        <mxCell id="n6tZyFYkpruv4pq4nB3Q-148" value="" style="strokeWidth=2;html=1;shape=mxgraph.flowchart.annotation_2;align=left;labelPosition=right;pointerEvents=1;rotation=-180;" vertex="1" parent="n6tZyFYkpruv4pq4nB3Q-68">
          <mxGeometry x="130" y="990" width="50" height="100" as="geometry" />
        </mxCell>
        <mxCell id="n6tZyFYkpruv4pq4nB3Q-149" value="receive all gt_i" style="rounded=0;whiteSpace=wrap;html=1;" vertex="1" parent="n6tZyFYkpruv4pq4nB3Q-68">
          <mxGeometry x="20" y="1010" width="120" height="60" as="geometry" />
        </mxCell>
        <mxCell id="n6tZyFYkpruv4pq4nB3Q-150" value="" style="endArrow=none;dashed=1;html=1;dashPattern=1 3;strokeWidth=2;rounded=0;exitX=0;exitY=0.5;exitDx=0;exitDy=0;exitPerimeter=0;" edge="1" parent="n6tZyFYkpruv4pq4nB3Q-68" source="n6tZyFYkpruv4pq4nB3Q-148">
          <mxGeometry width="50" height="50" relative="1" as="geometry">
            <mxPoint x="260" y="1030" as="sourcePoint" />
            <mxPoint x="380" y="1040" as="targetPoint" />
          </mxGeometry>
        </mxCell>
        <mxCell id="n6tZyFYkpruv4pq4nB3Q-173" value="" style="html=1;points=[[0,0,0,0,5],[0,1,0,0,-5],[1,0,0,0,5],[1,1,0,0,-5]];perimeter=orthogonalPerimeter;outlineConnect=0;targetShapes=umlLifeline;portConstraint=eastwest;newEdgeStyle={&quot;curved&quot;:0,&quot;rounded&quot;:0};" vertex="1" parent="n6tZyFYkpruv4pq4nB3Q-68">
          <mxGeometry x="380.25" y="1240" width="10" height="110" as="geometry" />
        </mxCell>
        <mxCell id="n6tZyFYkpruv4pq4nB3Q-174" value="MCPS-DATA.req" style="endArrow=classic;html=1;rounded=0;exitX=1;exitY=1;exitDx=0;exitDy=-5;exitPerimeter=0;" edge="1" parent="n6tZyFYkpruv4pq4nB3Q-68" source="n6tZyFYkpruv4pq4nB3Q-173">
          <mxGeometry width="50" height="50" relative="1" as="geometry">
            <mxPoint x="450.25" y="1380" as="sourcePoint" />
            <mxPoint x="679.25" y="1345" as="targetPoint" />
          </mxGeometry>
        </mxCell>
        <mxCell id="n6tZyFYkpruv4pq4nB3Q-175" value="" style="html=1;points=[[0,0,0,0,5],[0,1,0,0,-5],[1,0,0,0,5],[1,1,0,0,-5]];perimeter=orthogonalPerimeter;outlineConnect=0;targetShapes=umlLifeline;portConstraint=eastwest;newEdgeStyle={&quot;curved&quot;:0,&quot;rounded&quot;:0};" vertex="1" parent="n6tZyFYkpruv4pq4nB3Q-68">
          <mxGeometry x="525.25" y="1210.71" width="10" height="29.29" as="geometry" />
        </mxCell>
        <mxCell id="n6tZyFYkpruv4pq4nB3Q-176" value="MCPS-DATA.ind" style="endArrow=classic;html=1;rounded=0;" edge="1" parent="n6tZyFYkpruv4pq4nB3Q-68">
          <mxGeometry width="50" height="50" relative="1" as="geometry">
            <mxPoint x="679.75" y="1210" as="sourcePoint" />
            <mxPoint x="530.25" y="1210" as="targetPoint" />
          </mxGeometry>
        </mxCell>
        <mxCell id="n6tZyFYkpruv4pq4nB3Q-177" value="callback" style="html=1;verticalAlign=bottom;endArrow=block;curved=0;rounded=0;entryX=1;entryY=0;entryDx=0;entryDy=5;" edge="1" parent="n6tZyFYkpruv4pq4nB3Q-68">
          <mxGeometry relative="1" as="geometry">
            <mxPoint x="525.25" y="1240" as="sourcePoint" />
            <mxPoint x="385.75" y="1240" as="targetPoint" />
          </mxGeometry>
        </mxCell>
        <mxCell id="n6tZyFYkpruv4pq4nB3Q-178" value="tr, t1" style="text;html=1;align=center;verticalAlign=middle;whiteSpace=wrap;rounded=0;" vertex="1" parent="n6tZyFYkpruv4pq4nB3Q-68">
          <mxGeometry x="270" y="1320" width="80" height="30" as="geometry" />
        </mxCell>
        <mxCell id="n6tZyFYkpruv4pq4nB3Q-179" value="receive all t1_i&lt;br&gt;if gt_i =/= h2(t1_i) abort&lt;br&gt;t1 = t1_0 + ... + t1_n&lt;br&gt;tr = h(p,t1)" style="rounded=0;whiteSpace=wrap;html=1;" vertex="1" parent="n6tZyFYkpruv4pq4nB3Q-68">
          <mxGeometry x="10" y="1240" width="130" height="110" as="geometry" />
        </mxCell>
        <mxCell id="n6tZyFYkpruv4pq4nB3Q-180" value="" style="endArrow=none;dashed=1;html=1;dashPattern=1 3;strokeWidth=2;rounded=0;exitX=0;exitY=0.5;exitDx=0;exitDy=0;exitPerimeter=0;" edge="1" parent="n6tZyFYkpruv4pq4nB3Q-68">
          <mxGeometry width="50" height="50" relative="1" as="geometry">
            <mxPoint x="180" y="1295" as="sourcePoint" />
            <mxPoint x="380" y="1295" as="targetPoint" />
          </mxGeometry>
        </mxCell>
        <mxCell id="n6tZyFYkpruv4pq4nB3Q-181" value="MCPS-DATA.cnf" style="endArrow=classic;html=1;rounded=0;" edge="1" parent="n6tZyFYkpruv4pq4nB3Q-68">
          <mxGeometry width="50" height="50" relative="1" as="geometry">
            <mxPoint x="680" y="1410" as="sourcePoint" />
            <mxPoint x="530" y="1410" as="targetPoint" />
          </mxGeometry>
        </mxCell>
        <mxCell id="n6tZyFYkpruv4pq4nB3Q-182" value="" style="endArrow=classic;html=1;rounded=0;" edge="1" parent="n6tZyFYkpruv4pq4nB3Q-68">
          <mxGeometry width="50" height="50" relative="1" as="geometry">
            <mxPoint x="380" y="1349.9999999999998" as="sourcePoint" />
            <mxPoint x="229.9473684210525" y="1349.9999999999998" as="targetPoint" />
          </mxGeometry>
        </mxCell>
        <mxCell id="n6tZyFYkpruv4pq4nB3Q-183" value="" style="strokeWidth=2;html=1;shape=mxgraph.flowchart.annotation_2;align=left;labelPosition=right;pointerEvents=1;rotation=-180;" vertex="1" parent="n6tZyFYkpruv4pq4nB3Q-68">
          <mxGeometry x="130" y="1230" width="50" height="130" as="geometry" />
        </mxCell>
        <mxCell id="n6tZyFYkpruv4pq4nB3Q-76" value="broadcast, msg_code = 0, ACK" style="text;html=1;align=center;verticalAlign=middle;whiteSpace=wrap;rounded=0;" vertex="1" parent="1">
          <mxGeometry x="580" y="480" width="330" height="30" as="geometry" />
        </mxCell>
        <mxCell id="n6tZyFYkpruv4pq4nB3Q-77" value="" style="endArrow=classic;html=1;rounded=0;" edge="1" parent="1">
          <mxGeometry relative="1" as="geometry">
            <mxPoint x="460" y="470" as="sourcePoint" />
            <mxPoint x="949.4999999999995" y="470" as="targetPoint" />
          </mxGeometry>
        </mxCell>
        <mxCell id="n6tZyFYkpruv4pq4nB3Q-78" value="" style="shape=message;html=1;outlineConnect=0;" vertex="1" parent="n6tZyFYkpruv4pq4nB3Q-77">
          <mxGeometry width="20" height="14" relative="1" as="geometry">
            <mxPoint x="-10" y="-7" as="offset" />
          </mxGeometry>
        </mxCell>
        <mxCell id="n6tZyFYkpruv4pq4nB3Q-79" value="" style="endArrow=classic;html=1;rounded=0;" edge="1" parent="1">
          <mxGeometry relative="1" as="geometry">
            <mxPoint x="459.44736842105294" y="519.41" as="sourcePoint" />
            <mxPoint x="1139.5000000000005" y="519.41" as="targetPoint" />
          </mxGeometry>
        </mxCell>
        <mxCell id="n6tZyFYkpruv4pq4nB3Q-80" value="" style="shape=message;html=1;outlineConnect=0;" vertex="1" parent="n6tZyFYkpruv4pq4nB3Q-79">
          <mxGeometry width="20" height="14" relative="1" as="geometry">
            <mxPoint x="-10" y="-7" as="offset" />
          </mxGeometry>
        </mxCell>
        <mxCell id="n6tZyFYkpruv4pq4nB3Q-92" value="" style="endArrow=classic;html=1;rounded=0;" edge="1" parent="1">
          <mxGeometry relative="1" as="geometry">
            <mxPoint x="1139.95" y="620.0000000000002" as="sourcePoint" />
            <mxPoint x="459.99761904761925" y="620.0000000000002" as="targetPoint" />
          </mxGeometry>
        </mxCell>
        <mxCell id="n6tZyFYkpruv4pq4nB3Q-93" value="" style="shape=message;html=1;outlineConnect=0;" vertex="1" parent="n6tZyFYkpruv4pq4nB3Q-92">
          <mxGeometry width="20" height="14" relative="1" as="geometry">
            <mxPoint x="-10" y="-7" as="offset" />
          </mxGeometry>
        </mxCell>
        <mxCell id="n6tZyFYkpruv4pq4nB3Q-94" value="unicast, msg_code = 1, data = p_i" style="text;html=1;align=center;verticalAlign=middle;whiteSpace=wrap;rounded=0;" vertex="1" parent="1">
          <mxGeometry x="570" y="580" width="330" height="30" as="geometry" />
        </mxCell>
        <mxCell id="n6tZyFYkpruv4pq4nB3Q-95" value="" style="endArrow=none;dashed=1;html=1;dashPattern=1 3;strokeWidth=2;rounded=0;" edge="1" parent="1">
          <mxGeometry width="50" height="50" relative="1" as="geometry">
            <mxPoint x="851" y="670" as="sourcePoint" />
            <mxPoint x="851" y="645.12" as="targetPoint" />
          </mxGeometry>
        </mxCell>
        <mxCell id="n6tZyFYkpruv4pq4nB3Q-96" value="" style="endArrow=classic;html=1;rounded=0;" edge="1" parent="1">
          <mxGeometry relative="1" as="geometry">
            <mxPoint x="950.5" y="680.2900000000001" as="sourcePoint" />
            <mxPoint x="460" y="680" as="targetPoint" />
          </mxGeometry>
        </mxCell>
        <mxCell id="n6tZyFYkpruv4pq4nB3Q-97" value="" style="shape=message;html=1;outlineConnect=0;" vertex="1" parent="n6tZyFYkpruv4pq4nB3Q-96">
          <mxGeometry width="20" height="14" relative="1" as="geometry">
            <mxPoint x="-10" y="-7" as="offset" />
          </mxGeometry>
        </mxCell>
        <mxCell id="n6tZyFYkpruv4pq4nB3Q-98" value="" style="endArrow=classic;html=1;rounded=0;" edge="1" parent="1">
          <mxGeometry relative="1" as="geometry">
            <mxPoint x="950.5" y="640" as="sourcePoint" />
            <mxPoint x="460.54761904761926" y="640" as="targetPoint" />
          </mxGeometry>
        </mxCell>
        <mxCell id="n6tZyFYkpruv4pq4nB3Q-99" value="" style="shape=message;html=1;outlineConnect=0;" vertex="1" parent="n6tZyFYkpruv4pq4nB3Q-98">
          <mxGeometry width="20" height="14" relative="1" as="geometry">
            <mxPoint x="-10" y="-7" as="offset" />
          </mxGeometry>
        </mxCell>
        <mxCell id="n6tZyFYkpruv4pq4nB3Q-110" value="broadcast, msg_code = 1, ACK, data = p" style="text;html=1;align=center;verticalAlign=middle;whiteSpace=wrap;rounded=0;" vertex="1" parent="1">
          <mxGeometry x="580.55" y="780" width="330" height="30" as="geometry" />
        </mxCell>
        <mxCell id="n6tZyFYkpruv4pq4nB3Q-111" value="" style="endArrow=classic;html=1;rounded=0;" edge="1" parent="1">
          <mxGeometry relative="1" as="geometry">
            <mxPoint x="460.55" y="770" as="sourcePoint" />
            <mxPoint x="950.0499999999995" y="770" as="targetPoint" />
          </mxGeometry>
        </mxCell>
        <mxCell id="n6tZyFYkpruv4pq4nB3Q-112" value="" style="shape=message;html=1;outlineConnect=0;" vertex="1" parent="n6tZyFYkpruv4pq4nB3Q-111">
          <mxGeometry width="20" height="14" relative="1" as="geometry">
            <mxPoint x="-10" y="-7" as="offset" />
          </mxGeometry>
        </mxCell>
        <mxCell id="n6tZyFYkpruv4pq4nB3Q-113" value="" style="endArrow=classic;html=1;rounded=0;" edge="1" parent="1">
          <mxGeometry relative="1" as="geometry">
            <mxPoint x="459.99736842105295" y="819.41" as="sourcePoint" />
            <mxPoint x="1140.0500000000004" y="819.41" as="targetPoint" />
          </mxGeometry>
        </mxCell>
        <mxCell id="n6tZyFYkpruv4pq4nB3Q-114" value="" style="shape=message;html=1;outlineConnect=0;" vertex="1" parent="n6tZyFYkpruv4pq4nB3Q-113">
          <mxGeometry width="20" height="14" relative="1" as="geometry">
            <mxPoint x="-10" y="-7" as="offset" />
          </mxGeometry>
        </mxCell>
        <mxCell id="n6tZyFYkpruv4pq4nB3Q-126" value="" style="endArrow=classic;html=1;rounded=0;" edge="1" parent="1">
          <mxGeometry relative="1" as="geometry">
            <mxPoint x="1139.95" y="970.0000000000002" as="sourcePoint" />
            <mxPoint x="459.99761904761925" y="970.0000000000002" as="targetPoint" />
          </mxGeometry>
        </mxCell>
        <mxCell id="n6tZyFYkpruv4pq4nB3Q-127" value="" style="shape=message;html=1;outlineConnect=0;" vertex="1" parent="n6tZyFYkpruv4pq4nB3Q-126">
          <mxGeometry width="20" height="14" relative="1" as="geometry">
            <mxPoint x="-10" y="-7" as="offset" />
          </mxGeometry>
        </mxCell>
        <mxCell id="n6tZyFYkpruv4pq4nB3Q-128" value="unicast, msg_code = 2, stage = 0, data = gt_i" style="text;html=1;align=center;verticalAlign=middle;whiteSpace=wrap;rounded=0;" vertex="1" parent="1">
          <mxGeometry x="570" y="930" width="330" height="30" as="geometry" />
        </mxCell>
        <mxCell id="n6tZyFYkpruv4pq4nB3Q-129" value="" style="endArrow=none;dashed=1;html=1;dashPattern=1 3;strokeWidth=2;rounded=0;" edge="1" parent="1">
          <mxGeometry width="50" height="50" relative="1" as="geometry">
            <mxPoint x="851" y="1020" as="sourcePoint" />
            <mxPoint x="851" y="995.12" as="targetPoint" />
          </mxGeometry>
        </mxCell>
        <mxCell id="n6tZyFYkpruv4pq4nB3Q-130" value="" style="endArrow=classic;html=1;rounded=0;" edge="1" parent="1">
          <mxGeometry relative="1" as="geometry">
            <mxPoint x="950.5" y="1030.29" as="sourcePoint" />
            <mxPoint x="460" y="1030" as="targetPoint" />
          </mxGeometry>
        </mxCell>
        <mxCell id="n6tZyFYkpruv4pq4nB3Q-131" value="" style="shape=message;html=1;outlineConnect=0;" vertex="1" parent="n6tZyFYkpruv4pq4nB3Q-130">
          <mxGeometry width="20" height="14" relative="1" as="geometry">
            <mxPoint x="-10" y="-7" as="offset" />
          </mxGeometry>
        </mxCell>
        <mxCell id="n6tZyFYkpruv4pq4nB3Q-132" value="" style="endArrow=classic;html=1;rounded=0;" edge="1" parent="1">
          <mxGeometry relative="1" as="geometry">
            <mxPoint x="950.5" y="990" as="sourcePoint" />
            <mxPoint x="460.54761904761926" y="990" as="targetPoint" />
          </mxGeometry>
        </mxCell>
        <mxCell id="n6tZyFYkpruv4pq4nB3Q-133" value="" style="shape=message;html=1;outlineConnect=0;" vertex="1" parent="n6tZyFYkpruv4pq4nB3Q-132">
          <mxGeometry width="20" height="14" relative="1" as="geometry">
            <mxPoint x="-10" y="-7" as="offset" />
          </mxGeometry>
        </mxCell>
        <mxCell id="n6tZyFYkpruv4pq4nB3Q-142" value="MCPS-DATA.cnf" style="endArrow=classic;html=1;rounded=0;" edge="1" parent="1">
          <mxGeometry width="50" height="50" relative="1" as="geometry">
            <mxPoint x="459" y="1140" as="sourcePoint" />
            <mxPoint x="310" y="1140" as="targetPoint" />
          </mxGeometry>
        </mxCell>
        <mxCell id="n6tZyFYkpruv4pq4nB3Q-143" value="broadcast, msg_code = 2, ACK" style="text;html=1;align=center;verticalAlign=middle;whiteSpace=wrap;rounded=0;" vertex="1" parent="1">
          <mxGeometry x="580.55" y="1090" width="330" height="30" as="geometry" />
        </mxCell>
        <mxCell id="n6tZyFYkpruv4pq4nB3Q-144" value="" style="endArrow=classic;html=1;rounded=0;" edge="1" parent="1">
          <mxGeometry relative="1" as="geometry">
            <mxPoint x="460.55" y="1080" as="sourcePoint" />
            <mxPoint x="950.0499999999995" y="1080" as="targetPoint" />
          </mxGeometry>
        </mxCell>
        <mxCell id="n6tZyFYkpruv4pq4nB3Q-145" value="" style="shape=message;html=1;outlineConnect=0;" vertex="1" parent="n6tZyFYkpruv4pq4nB3Q-144">
          <mxGeometry width="20" height="14" relative="1" as="geometry">
            <mxPoint x="-10" y="-7" as="offset" />
          </mxGeometry>
        </mxCell>
        <mxCell id="n6tZyFYkpruv4pq4nB3Q-146" value="" style="endArrow=classic;html=1;rounded=0;" edge="1" parent="1">
          <mxGeometry relative="1" as="geometry">
            <mxPoint x="459.99736842105295" y="1129.4099999999999" as="sourcePoint" />
            <mxPoint x="1140.0500000000004" y="1129.4099999999999" as="targetPoint" />
          </mxGeometry>
        </mxCell>
        <mxCell id="n6tZyFYkpruv4pq4nB3Q-147" value="" style="shape=message;html=1;outlineConnect=0;" vertex="1" parent="n6tZyFYkpruv4pq4nB3Q-146">
          <mxGeometry width="20" height="14" relative="1" as="geometry">
            <mxPoint x="-10" y="-7" as="offset" />
          </mxGeometry>
        </mxCell>
        <mxCell id="n6tZyFYkpruv4pq4nB3Q-165" value="" style="endArrow=classic;html=1;rounded=0;" edge="1" parent="1">
          <mxGeometry relative="1" as="geometry">
            <mxPoint x="1139.95" y="1200.0000000000002" as="sourcePoint" />
            <mxPoint x="459.99761904761925" y="1200.0000000000002" as="targetPoint" />
          </mxGeometry>
        </mxCell>
        <mxCell id="n6tZyFYkpruv4pq4nB3Q-166" value="" style="shape=message;html=1;outlineConnect=0;" vertex="1" parent="n6tZyFYkpruv4pq4nB3Q-165">
          <mxGeometry width="20" height="14" relative="1" as="geometry">
            <mxPoint x="-10" y="-7" as="offset" />
          </mxGeometry>
        </mxCell>
        <mxCell id="n6tZyFYkpruv4pq4nB3Q-167" value="unicast, msg_code = 3, data = t1_i" style="text;html=1;align=center;verticalAlign=middle;whiteSpace=wrap;rounded=0;" vertex="1" parent="1">
          <mxGeometry x="570" y="1160" width="330" height="30" as="geometry" />
        </mxCell>
        <mxCell id="n6tZyFYkpruv4pq4nB3Q-168" value="" style="endArrow=none;dashed=1;html=1;dashPattern=1 3;strokeWidth=2;rounded=0;" edge="1" parent="1">
          <mxGeometry width="50" height="50" relative="1" as="geometry">
            <mxPoint x="851" y="1250" as="sourcePoint" />
            <mxPoint x="851" y="1225.12" as="targetPoint" />
          </mxGeometry>
        </mxCell>
        <mxCell id="n6tZyFYkpruv4pq4nB3Q-169" value="" style="endArrow=classic;html=1;rounded=0;" edge="1" parent="1">
          <mxGeometry relative="1" as="geometry">
            <mxPoint x="950.5" y="1260.29" as="sourcePoint" />
            <mxPoint x="460" y="1260" as="targetPoint" />
          </mxGeometry>
        </mxCell>
        <mxCell id="n6tZyFYkpruv4pq4nB3Q-170" value="" style="shape=message;html=1;outlineConnect=0;" vertex="1" parent="n6tZyFYkpruv4pq4nB3Q-169">
          <mxGeometry width="20" height="14" relative="1" as="geometry">
            <mxPoint x="-10" y="-7" as="offset" />
          </mxGeometry>
        </mxCell>
        <mxCell id="n6tZyFYkpruv4pq4nB3Q-171" value="" style="endArrow=classic;html=1;rounded=0;" edge="1" parent="1">
          <mxGeometry relative="1" as="geometry">
            <mxPoint x="950.5" y="1220" as="sourcePoint" />
            <mxPoint x="460.54761904761926" y="1220" as="targetPoint" />
          </mxGeometry>
        </mxCell>
        <mxCell id="n6tZyFYkpruv4pq4nB3Q-172" value="" style="shape=message;html=1;outlineConnect=0;" vertex="1" parent="n6tZyFYkpruv4pq4nB3Q-171">
          <mxGeometry width="20" height="14" relative="1" as="geometry">
            <mxPoint x="-10" y="-7" as="offset" />
          </mxGeometry>
        </mxCell>
        <mxCell id="n6tZyFYkpruv4pq4nB3Q-185" value="broadcast, msg_code = 3, ACK, data = t1" style="text;html=1;align=center;verticalAlign=middle;whiteSpace=wrap;rounded=0;" vertex="1" parent="1">
          <mxGeometry x="580.55" y="1360" width="330" height="30" as="geometry" />
        </mxCell>
        <mxCell id="n6tZyFYkpruv4pq4nB3Q-186" value="" style="endArrow=classic;html=1;rounded=0;" edge="1" parent="1">
          <mxGeometry relative="1" as="geometry">
            <mxPoint x="460.55" y="1350" as="sourcePoint" />
            <mxPoint x="950.0499999999995" y="1350" as="targetPoint" />
          </mxGeometry>
        </mxCell>
        <mxCell id="n6tZyFYkpruv4pq4nB3Q-187" value="" style="shape=message;html=1;outlineConnect=0;" vertex="1" parent="n6tZyFYkpruv4pq4nB3Q-186">
          <mxGeometry width="20" height="14" relative="1" as="geometry">
            <mxPoint x="-10" y="-7" as="offset" />
          </mxGeometry>
        </mxCell>
        <mxCell id="n6tZyFYkpruv4pq4nB3Q-188" value="" style="endArrow=classic;html=1;rounded=0;" edge="1" parent="1">
          <mxGeometry relative="1" as="geometry">
            <mxPoint x="459.99736842105295" y="1399.4099999999999" as="sourcePoint" />
            <mxPoint x="1140.0500000000004" y="1399.4099999999999" as="targetPoint" />
          </mxGeometry>
        </mxCell>
        <mxCell id="n6tZyFYkpruv4pq4nB3Q-189" value="" style="shape=message;html=1;outlineConnect=0;" vertex="1" parent="n6tZyFYkpruv4pq4nB3Q-188">
          <mxGeometry width="20" height="14" relative="1" as="geometry">
            <mxPoint x="-10" y="-7" as="offset" />
          </mxGeometry>
        </mxCell>
      </root>
    </mxGraphModel>
  </diagram>
</mxfile>
